<?xml version="1.0" standalone="no"?>
<!DOCTYPE svg PUBLIC "-//W3C//DTD SVG 20010904//EN"
        "http://www.w3.org/TR/2001/REC-SVG-20010904/DTD/svg10.dtd">
<svg version="1.0" xmlns="http://www.w3.org/2000/svg"
     width="2048.000000pt" height="2048.000000pt" viewBox="0 0 2048.000000 2048.000000"
     preserveAspectRatio="xMidYMid meet">

    <g transform="translate(0.000000,2048.000000) scale(0.100000,-0.100000)"
       fill="#507CE2"  stroke="none">
        <path  d="M3350 20465 c-348 -26 -631 -88 -948 -206 -197 -73 -524 -233 -422
-206 11 3 20 0 20 -5 0 -6 -12 -8 -29 -5 -22 5 -50 -6 -132 -54 -100 -58 -145
-90 -106 -75 43 16 50 16 24 1 -15 -9 -32 -13 -37 -10 -15 9 -119 -65 -114
-80 3 -7 -4 -19 -16 -25 -18 -10 -19 -14 -9 -28 11 -14 11 -15 0 -5 -7 6 -21
9 -30 6 -26 -10 -61 -40 -54 -47 3 -3 1 -6 -5 -6 -7 0 -12 4 -12 8 0 10 96 82
110 82 5 0 10 5 10 10 0 6 -3 10 -6 10 -20 0 -354 -271 -354 -287 0 -3 7 1 17
8 15 13 15 12 2 -8 -9 -16 -16 -19 -21 -10 -8 12 -45 -21 -193 -173 -220 -227
-432 -512 -584 -784 -253 -454 -383 -850 -443 -1351 -16 -133 -24 -13661 -8
-13890 28 -419 169 -898 395 -1345 106 -208 178 -321 353 -547 343 -445 800
-817 1312 -1069 438 -216 812 -321 1270 -359 264 -22 13579 -22 13806 0 384
37 689 112 1052 261 179 73 322 146 492 249 76 47 144 85 150 85 6 0 35 22 63
48 29 27 75 64 102 83 28 18 77 57 110 85 33 28 87 73 121 100 108 87 341 337
481 515 222 284 450 698 551 999 120 361 160 529 192 813 20 169 20 270 20
6943 0 4427 -3 6816 -10 6900 -36 461 -165 925 -370 1329 -308 609 -704 1060
-1260 1437 -216 147 -401 246 -665 358 -287 121 -684 217 -1030 250 -173 16
-13578 11 -13795 -5z m-521 -99 c-2 -2 -17 -6 -34 -10 -22 -5 -26 -4 -15 4 14
9 59 15 49 6z m-229 -60 c0 -3 -4 -8 -10 -11 -5 -3 -10 -1 -10 4 0 6 5 11 10
11 6 0 10 -2 10 -4z m-54 -25 c-6 -9 -46 -12 -46 -4 0 5 45 21 49 17 1 -1 0
-7 -3 -13z m-113 -38 c-7 -2 -19 -2 -25 0 -7 3 -2 5 12 5 14 0 19 -2 13 -5z
m-99 -33 c-23 -10 -45 -23 -49 -29 -3 -6 -10 -9 -15 -6 -4 3 -30 -4 -56 -16
-78 -33 -95 -42 -85 -48 5 -3 2 -13 -7 -21 -14 -13 -15 -12 -9 4 5 14 3 17 -8
12 -27 -10 -16 3 18 21 55 30 139 63 147 58 5 -3 10 0 12 7 2 6 20 17 39 24
51 19 60 15 13 -6z m-104 -104 c0 -2 -7 -7 -16 -10 -8 -3 -12 -2 -9 4 6 10 25
14 25 6z m-155 -15 c-6 -5 -21 -12 -35 -15 l-25 -7 25 15 c28 17 50 21 35 7z
m-1 -40 c4 -5 -3 -7 -14 -4 -23 6 -26 13 -6 13 8 0 17 -4 20 -9z m-17 -19 c8
-5 -2 -8 -25 -9 -28 0 -32 1 -17 7 26 11 28 11 42 2z m-127 -17 c-7 -8 -17
-15 -23 -15 -6 0 -20 -8 -31 -17 -20 -17 -20 -17 -7 0 7 9 25 23 40 31 35 18
35 18 21 1z m-88 -52 c-6 -2 -10 -9 -7 -14 4 -5 -1 -6 -9 -3 -9 3 -16 1 -16
-5 0 -6 -4 -11 -10 -11 -5 0 -10 4 -10 8 0 10 39 31 55 31 6 -1 4 -3 -3 -6z
m-108 -81 c3 -5 -9 -9 -26 -10 -24 -1 -28 2 -18 8 19 12 37 13 44 2z m-80 -37
c-10 -8 -23 -14 -29 -14 -5 -1 1 8 15 19 14 10 27 17 29 14 3 -2 -4 -11 -15
-19z m-3 -48 c-10 -9 -11 -8 -5 6 3 10 9 15 12 12 3 -3 0 -11 -7 -18z m-188
-84 c-7 -2 -13 -11 -13 -19 0 -9 -5 -12 -10 -9 -6 3 -13 -1 -16 -9 -3 -9 -10
-13 -15 -10 -10 6 40 54 56 53 6 0 4 -3 -2 -6z m-319 -286 c-2 -7 -14 -19 -27
-26 -21 -13 -21 -12 2 13 27 29 33 32 25 13z m-70 -69 c-36 -41 -64 -67 -64
-60 0 7 72 82 79 82 2 0 -4 -10 -15 -22z m-116 -159 c-16 -10 -33 5 -23 21 5
8 11 8 21 -1 12 -10 12 -14 2 -20z m-34 -35 c4 -9 4 -19 1 -22 -3 -3 -5 0 -5
6 0 7 -8 12 -17 12 -14 0 -15 -2 -4 -9 8 -5 9 -11 3 -15 -5 -3 -13 2 -16 11
-4 9 -1 20 6 25 19 11 25 10 32 -8z m4878 -3042 c173 -47 311 -134 455 -286
87 -91 168 -227 202 -336 79 -253 38 -534 -109 -750 -131 -193 -338 -339 -552
-390 -46 -11 -154 -24 -240 -30 -87 -6 -187 -19 -222 -29 -167 -46 -320 -194
-394 -379 l-27 -67 -6 -1125 c-5 -973 -8 -1135 -22 -1200 -9 -41 -23 -109 -32
-150 -35 -166 -118 -407 -190 -550 -96 -190 -229 -395 -329 -506 -25 -29 -46
-55 -46 -59 0 -4 26 -33 57 -66 192 -200 419 -646 499 -979 60 -252 56 -160
64 -1415 7 -1241 4 -1186 60 -1295 54 -107 125 -187 223 -251 86 -56 164 -79
307 -90 287 -22 415 -57 558 -152 200 -134 357 -350 419 -578 23 -87 23 -285
-1 -394 -25 -113 -109 -282 -188 -375 -218 -257 -518 -361 -948 -330 -743 53
-1407 419 -1814 999 -184 262 -291 484 -372 771 -93 326 -87 233 -94 1525 l-5
1140 -28 79 c-50 141 -128 258 -228 342 -98 81 -187 117 -369 145 -275 42
-420 115 -587 294 -97 104 -165 215 -212 347 -35 101 -36 106 -36 253 0 169
19 268 76 398 96 219 317 423 553 512 38 14 119 32 180 40 217 29 316 75 448
206 98 99 152 195 188 334 19 76 20 109 20 1128 0 1014 1 1054 21 1196 120
833 604 1500 1364 1878 199 100 513 189 745 212 52 5 194 8 315 7 186 -3 232
-6 297 -24z m10683 -2627 c332 -43 575 -115 846 -251 353 -176 679 -489 833
-800 122 -243 159 -369 160 -534 1 -83 -3 -113 -17 -142 -25 -49 -98 -120
-155 -149 l-47 -24 -415 0 -415 0 -50 27 c-88 46 -115 88 -150 228 -29 112
-111 254 -189 323 -205 183 -514 280 -846 264 -291 -13 -496 -93 -657 -254
-136 -136 -204 -370 -158 -547 57 -218 220 -372 540 -511 137 -59 238 -90 750
-235 568 -160 947 -326 1235 -539 41 -31 131 -112 200 -181 250 -249 406 -553
461 -900 18 -112 18 -467 1 -580 -59 -377 -226 -707 -491 -970 -345 -342 -751
-533 -1331 -626 -162 -25 -632 -31 -820 -9 -866 99 -1538 529 -1837 1174 -114
248 -155 545 -93 675 28 58 84 116 137 141 52 26 257 37 593 33 245 -3 268 -5
310 -24 90 -42 120 -85 160 -224 86 -300 306 -514 645 -628 278 -94 649 -92
918 4 223 81 370 199 461 374 49 92 66 170 66 291 -1 255 -84 399 -330 571
-162 113 -361 188 -930 352 -757 217 -1140 405 -1465 717 -265 255 -422 565
-465 919 -13 108 -13 341 0 450 15 122 65 316 111 428 123 301 389 617 674
800 317 204 706 332 1130 371 135 13 483 5 630 -14z m-3185 -91 c76 -24 153
-93 192 -171 l33 -68 0 -330 c0 -375 4 -355 -87 -451 -30 -32 -72 -62 -111
-80 l-62 -29 -732 0 -733 0 0 -2435 c0 -2420 -1 -2435 -21 -2479 -46 -103
-150 -187 -259 -211 -38 -8 -154 -11 -375 -8 l-320 3 -63 34 c-78 43 -155 126
-182 198 -20 53 -20 86 -22 2475 l-3 2422 -720 2 c-711 1 -721 1 -768 22 -62
28 -147 108 -176 168 -34 67 -40 137 -38 439 2 253 3 273 24 317 38 83 140
174 222 198 14 4 955 6 2091 3 1740 -4 2072 -7 2110 -19z m-4952 -2180 c57
-44 830 -821 856 -861 33 -52 41 -96 25 -152 -11 -41 -42 -76 -268 -306 -639
-649 -635 -645 -715 -645 -99 1 -202 103 -200 199 1 63 19 87 285 361 123 127
225 235 226 238 2 4 -511 7 -1140 7 -1093 0 -1143 1 -1176 19 -133 72 -147
243 -27 340 l38 31 1157 3 1157 2 -237 238 c-146 146 -245 253 -258 279 -52
104 -3 213 119 268 47 21 114 12 158 -21z"/>
        <path  d="M5385 15994 c-351 -15 -611 -79 -910 -224 -353 -170 -688 -472 -904
-813 -138 -218 -260 -508 -307 -732 -47 -222 -48 -242 -50 -1345 -1 -575 -5
-1075 -8 -1111 -11 -130 -67 -269 -156 -389 -148 -199 -356 -322 -587 -345
-243 -24 -450 -150 -587 -359 -95 -144 -128 -253 -127 -426 1 -213 83 -395
246 -548 140 -131 269 -188 479 -212 183 -21 292 -68 427 -183 190 -162 291
-365 310 -621 4 -67 9 -567 9 -1113 0 -1088 1 -1108 60 -1340 67 -262 136
-432 250 -622 107 -179 196 -294 347 -447 291 -296 603 -480 998 -589 236 -65
332 -78 595 -79 225 0 239 1 316 25 127 39 226 101 330 204 147 146 211 287
221 487 9 175 -20 281 -117 425 -97 144 -166 210 -300 281 -113 61 -198 81
-390 91 -132 8 -181 14 -245 35 -81 26 -196 90 -272 152 -88 72 -188 230 -235
369 l-23 70 -1 1085 c0 597 -4 1112 -8 1145 -11 95 -45 271 -72 377 -74 296
-246 626 -453 870 -42 50 -89 106 -104 124 l-29 34 70 79 c155 175 270 349
371 561 105 220 188 503 211 715 7 72 14 485 18 1185 l8 1075 31 88 c44 125
86 189 188 293 77 77 104 97 186 137 111 54 207 77 322 77 284 0 455 65 627
239 78 78 103 112 137 181 56 112 74 183 80 310 9 179 -37 322 -153 478 -97
129 -271 245 -429 286 -64 16 -238 26 -370 20z m316 -314 c185 -57 327 -230
337 -411 8 -141 -39 -260 -138 -352 -98 -91 -223 -137 -374 -137 -171 0 -365
-44 -504 -114 -161 -81 -349 -263 -439 -426 -32 -58 -83 -190 -106 -275 -20
-79 -21 -99 -27 -1215 -6 -1127 -7 -1136 -29 -1235 -72 -324 -213 -628 -400
-863 -64 -81 -240 -260 -296 -303 -27 -21 -63 -48 -78 -61 l-29 -24 96 -68
c137 -97 310 -292 426 -481 93 -152 114 -190 155 -290 62 -148 100 -272 126
-415 23 -125 23 -129 29 -1270 l6 -1145 23 -80 c27 -97 94 -242 149 -321 68
-99 207 -239 296 -299 175 -116 310 -159 565 -179 240 -20 301 -42 417 -156
140 -137 174 -354 84 -530 -30 -59 -127 -153 -192 -186 -103 -52 -140 -59
-314 -57 -279 3 -517 50 -744 145 -227 96 -449 241 -624 408 -347 333 -573
816 -592 1265 -3 61 -6 571 -8 1135 -2 1018 -3 1026 -25 1124 -49 217 -110
344 -251 519 -174 217 -413 359 -665 397 -44 6 -105 15 -135 20 -105 16 -165
46 -244 123 -128 125 -175 267 -142 427 21 101 60 172 132 245 90 90 159 123
296 141 142 18 213 36 311 78 244 106 452 300 594 556 43 76 79 182 104 303
21 100 21 127 24 1172 3 1158 4 1170 60 1390 67 265 218 556 400 774 303 362
732 607 1175 670 41 6 86 13 100 15 14 2 107 4 206 5 156 1 191 -2 245 -19z"/>
    </g>
</svg>
